<?xml version="1.0" encoding="iso-8859-1"?>
<!-- Generator: Adobe Illustrator 19.0.0, SVG Export Plug-In . SVG Version: 6.00 Build 0)  -->
<svg version="1.1" id="Layer_1" xmlns="http://www.w3.org/2000/svg" xmlns:xlink="http://www.w3.org/1999/xlink" x="0px" y="0px"
	 viewBox="0 0 508.001 508.001" style="enable-background:new 0 0 508.001 508.001;" xml:space="preserve">
<g>
	<g>
		<path d="M97.1,423.388H80.6c-7.8,0-14.1,6.3-14.1,14.1c0,7.7,6.3,14.1,14.1,14.1h16.5c7.8,0,14.1-6.3,14.1-14.1
			S104.9,423.388,97.1,423.388z"/>
	</g>
</g>
<g>
	<g>
		<path d="M185.3,423.388h-16.5c-7.8,0-14.1,6.3-14.1,14.1c0,7.7,6.3,14.1,14.1,14.1h16.5c7.8,0,14.1-6.3,14.1-14.1
			S193.1,423.388,185.3,423.388z"/>
	</g>
</g>
<g>
	<g>
		<path d="M273.5,423.388H257c-7.8,0-14.1,6.3-14.1,14.1c0,7.7,6.3,14.1,14.1,14.1h16.5c7.8,0,14.1-6.3,14.1-14.1
			S281.3,423.388,273.5,423.388z"/>
	</g>
</g>
<g>
	<g>
		<path d="M361.7,423.388h-16.5c-7.8,0-14.1,6.3-14.1,14.1c0,7.7,6.3,14.1,14.1,14.1h16.5c7.8,0,14.1-6.3,14.1-14.1
			S369.5,423.388,361.7,423.388z"/>
	</g>
</g>
<g>
	<g>
		<path d="M496.1,175.188l-123.1-123l-39.8-39.8c-16.5-16.5-43.4-16.5-59.9,0l-181,180.7h-50c-23.3,0-42.3,19-42.3,42.3v230.3
			c0,23.3,19,42.3,42.4,42.3H400c23.4,0,42.4-19,42.4-42.3v-176.9l53.8-53.7C504.1,227.088,518.3,197.288,496.1,175.188z
			 M293.2,32.288c5.5-5.5,14.5-5.5,20,0l29.8,29.9l-131,130.9h-79.7L293.2,32.288z M400,479.788H42.4c-7.8,0-14.1-6.3-14.1-14.1
			v-159.9h385.8v159.9h0C414.1,473.488,407.8,479.788,400,479.788z M414.1,277.588H28.3v-42.2c0-7.8,6.3-14.1,14.1-14.1H400
			c7.8,0,14.1,6.3,14.1,14.1V277.588z M476.1,215.088l-33.8,33.8v-13.5c0-23.3-19-42.3-42.4-42.3h-148l111.1-111l113.2,113.1
			C484.3,203.288,478.8,212.488,476.1,215.088z"/>
	</g>
</g>
<g>
</g>
<g>
</g>
<g>
</g>
<g>
</g>
<g>
</g>
<g>
</g>
<g>
</g>
<g>
</g>
<g>
</g>
<g>
</g>
<g>
</g>
<g>
</g>
<g>
</g>
<g>
</g>
<g>
</g>
</svg>
