<svg xmlns="http://www.w3.org/2000/svg" xmlns:xlink="http://www.w3.org/1999/xlink" version="1.1" width="1000" height="1000" viewBox="0 0 1000 1000" xml:space="preserve">
<desc>Created with Fabric.js 3.5.0</desc>
<defs>
</defs>
<rect x="0" y="0" width="100%" height="100%" fill="rgba(255,255,255,0)"/>
<g transform="matrix(32.2056 32.0766 -32.0766 32.2056 499.9998 499.9993)" id="781469">
<path style="stroke: none; stroke-width: 1; stroke-dasharray: none; stroke-linecap: butt; stroke-dashoffset: 0; stroke-linejoin: miter; stroke-miterlimit: 4; is-custom-font: none; font-file-url: none; fill: rgb(0,0,0); fill-rule: nonzero; opacity: 1;" vector-effect="non-scaling-stroke" transform=" translate(-10, -10)" d="M 18.75 8.75 H 11.25 V 1.25 C 11.25 0.918479 11.1183 0.600537 10.8839 0.366117 C 10.6495 0.131696 10.3315 0 10 0 C 9.66848 0 9.35054 0.131696 9.11612 0.366117 C 8.8817 0.600537 8.75 0.918479 8.75 1.25 V 8.75 H 1.25 C 0.918479 8.75 0.600537 8.8817 0.366117 9.11612 C 0.131696 9.35054 0 9.66848 0 10 C 0 10.3315 0.131696 10.6495 0.366117 10.8839 C 0.600537 11.1183 0.918479 11.25 1.25 11.25 H 8.75 V 18.75 C 8.75 19.0815 8.8817 19.3995 9.11612 19.6339 C 9.35054 19.8683 9.66848 20 10 20 C 10.3315 20 10.6495 19.8683 10.8839 19.6339 C 11.1183 19.3995 11.25 19.0815 11.25 18.75 V 11.25 H 18.75 C 19.0815 11.25 19.3995 11.1183 19.6339 10.8839 C 19.8683 10.6495 20 10.3315 20 10 C 20 9.66848 19.8683 9.35054 19.6339 9.11612 C 19.3995 8.8817 19.0815 8.75 18.75 8.75 Z" stroke-linecap="round"/>
</g>
</svg>