<svg width="15" height="18" viewBox="0 0 15 18" fill="none" xmlns="http://www.w3.org/2000/svg">
<path d="M13.333 15.3623H1.66634C1.44533 15.3623 1.23337 15.4501 1.07709 15.6064C0.920805 15.7627 0.833008 15.9746 0.833008 16.1956C0.833008 16.4167 0.920805 16.6286 1.07709 16.7849C1.23337 16.9412 1.44533 17.029 1.66634 17.029H13.333C13.554 17.029 13.766 16.9412 13.9223 16.7849C14.0785 16.6286 14.1663 16.4167 14.1663 16.1956C14.1663 15.9746 14.0785 15.7627 13.9223 15.6064C13.766 15.4501 13.554 15.3623 13.333 15.3623Z" fill="black"/>
<path d="M1.66594 13.6929H1.74094L5.21594 13.3762C5.5966 13.3383 5.95263 13.1706 6.22427 12.9012L13.7243 5.40125C14.0154 5.09372 14.1727 4.68334 14.1618 4.26003C14.1508 3.83672 13.9725 3.435 13.6659 3.14292L11.3826 0.859582C11.0846 0.579662 10.6941 0.419048 10.2854 0.408292C9.87666 0.397536 9.47825 0.53739 9.16594 0.801249L1.66594 8.30125C1.39658 8.57289 1.22886 8.92892 1.19094 9.30958L0.832604 12.7846C0.821378 12.9066 0.837216 13.0297 0.878988 13.1449C0.920761 13.2601 0.987439 13.3647 1.07427 13.4512C1.15214 13.5285 1.24448 13.5896 1.34602 13.6311C1.44755 13.6725 1.55627 13.6935 1.66594 13.6929V13.6929ZM10.2243 2.02625L12.4993 4.30125L10.8326 5.92625L8.59927 3.69292L10.2243 2.02625ZM2.8076 9.45125L7.49927 4.79292L9.74927 7.04292L5.0826 11.7096L2.5826 11.9429L2.8076 9.45125Z" fill="black"/>
</svg>
