<svg width="24" height="24" viewBox="0 0 24 24" fill="none" xmlns="http://www.w3.org/2000/svg">
<path d="M12 0C18.5151 0 23.8175 5.19201 23.9954 11.6641L24 12V13.2C24 15.8075 22.1729 18 19.8 18C18.3923 18 17.1767 17.2284 16.4207 16.0564C15.3247 17.2509 13.7498 18 12 18C8.68629 18 6 15.3137 6 12C6 8.68629 8.68629 6 12 6C15.2265 6 17.8582 8.54677 17.9945 11.7397L18 12V13.2C18 14.5689 18.8592 15.6 19.8 15.6C20.6937 15.6 21.5139 14.6695 21.5937 13.4027L21.6 13.2V12C21.6 6.69807 17.3019 2.4 12 2.4C6.69807 2.4 2.4 6.69807 2.4 12C2.4 17.3019 6.69807 21.6 12 21.6C13.3957 21.6 14.7471 21.3027 15.987 20.7358C16.5897 20.4602 17.3018 20.7254 17.5773 21.3281C17.8529 21.9309 17.5877 22.6429 16.985 22.9185C15.4335 23.6279 13.7419 24 12 24C5.37258 24 0 18.6274 0 12C0 5.37258 5.37258 0 12 0ZM12 8.4C10.0118 8.4 8.4 10.0118 8.4 12C8.4 13.9882 10.0118 15.6 12 15.6C13.9882 15.6 15.6 13.9882 15.6 12C15.6 10.0118 13.9882 8.4 12 8.4Z" fill="#BFC0C7"/>
</svg>
