<svg width="24" height="24" viewBox="0 0 24 24" fill="none" xmlns="http://www.w3.org/2000/svg">
<path d="M23.9943 12.7943H0.00585938V2.24901C0.020749 1.63925 0.276684 1.06024 0.71761 0.6388C1.15854 0.217358 1.74851 -0.0121666 2.35832 0.00049756H21.6418C22.2516 -0.0121666 22.8416 0.217358 23.2825 0.6388C23.7234 1.06024 23.9794 1.63925 23.9943 2.24901V12.7943ZM1.60509 11.1951H22.395V2.24901C22.3801 2.06347 22.2927 1.89129 22.1517 1.76976C22.0107 1.64823 21.8275 1.58714 21.6418 1.59973H2.35832C2.17261 1.58714 1.98942 1.64823 1.84843 1.76976C1.70744 1.89129 1.62001 2.06347 1.60509 2.24901V11.1951Z" fill="#000"/>
<path d="M21.6417 23.9889H2.35826C1.68621 23.9347 1.06255 23.618 0.622268 23.1074C0.181987 22.5968 -0.0394854 21.9333 0.0057941 21.2606V14.3936H23.9942V21.2606C24.0395 21.9333 23.818 22.5968 23.3777 23.1074C22.9375 23.618 22.3138 23.9347 21.6417 23.9889ZM1.60502 15.9928V21.2606C1.60502 21.8619 1.95685 22.3897 2.35826 22.3897H21.6417C22.0415 22.3897 22.395 21.8619 22.395 21.2606V15.9928H1.60502Z" fill="#000"/>
<path d="M19.2037 6.40549C18.8874 6.40549 18.5782 6.31169 18.3152 6.13597C18.0522 5.96024 17.8473 5.71048 17.7262 5.41826C17.6052 5.12604 17.5735 4.80449 17.6352 4.49427C17.6969 4.18405 17.8492 3.89909 18.0729 3.67543C18.2966 3.45178 18.5815 3.29947 18.8917 3.23776C19.2019 3.17605 19.5235 3.20772 19.8157 3.32877C20.1079 3.44981 20.3577 3.65478 20.5334 3.91778C20.7092 4.18077 20.8029 4.48996 20.8029 4.80626C20.8019 5.23008 20.6331 5.63623 20.3334 5.93592C20.0337 6.2356 19.6275 6.40443 19.2037 6.40549ZM19.2037 4.00665C19.0456 4.00665 18.891 4.05354 18.7595 4.1414C18.628 4.22927 18.5255 4.35415 18.465 4.50026C18.4045 4.64637 18.3886 4.80715 18.4195 4.96226C18.4503 5.11737 18.5265 5.25984 18.6383 5.37167C18.7501 5.4835 18.8926 5.55966 19.0477 5.59051C19.2028 5.62136 19.3636 5.60553 19.5097 5.54501C19.6558 5.48449 19.7807 5.382 19.8686 5.2505C19.9564 5.11901 20.0033 4.96441 20.0033 4.80626C20.0039 4.70092 19.9836 4.59651 19.9436 4.49903C19.9037 4.40156 19.8449 4.31294 19.7706 4.23826C19.6962 4.16359 19.6079 4.10433 19.5106 4.06389C19.4134 4.02346 19.3091 4.00265 19.2037 4.00265V4.00665Z" fill="#000"/>
<path d="M5.26086 20.7942H4.3589C4.05372 20.7938 3.76117 20.6724 3.54545 20.4565C3.32973 20.2406 3.20846 19.948 3.20825 19.6428V18.7416C3.20889 18.4367 3.33034 18.1445 3.54602 17.929C3.76169 17.7135 4.05399 17.5922 4.3589 17.5918H5.26086C5.56604 17.592 5.85867 17.7133 6.07454 17.929C6.29041 18.1447 6.41188 18.4373 6.4123 18.7424V19.6436C6.41167 19.9487 6.29013 20.2411 6.07431 20.4568C5.85848 20.6725 5.56597 20.7938 5.26086 20.7942ZM4.3589 18.3914C4.26586 18.3916 4.1767 18.4287 4.11091 18.4945C4.04513 18.5602 4.00808 18.6494 4.00787 18.7424V19.6436C4.00787 19.7368 4.04482 19.8261 4.11063 19.8921C4.17644 19.9581 4.26572 19.9952 4.3589 19.9954H5.26086C5.35411 19.9952 5.44347 19.9581 5.50941 19.8922C5.57534 19.8262 5.61248 19.7369 5.61269 19.6436V18.7416C5.61227 18.6486 5.57501 18.5595 5.50908 18.4939C5.44314 18.4283 5.3539 18.3914 5.26086 18.3914H4.3589Z" fill="#000"/>
<path d="M19.2253 20.7974L9.55399 20.7903C9.141 20.7898 8.74505 20.6256 8.45303 20.3336C8.16101 20.0415 7.99676 19.6456 7.99634 19.2326V19.1446C7.99803 18.7325 8.16283 18.3378 8.45472 18.0468C8.74661 17.7558 9.14183 17.5922 9.55399 17.5918L19.2293 17.5966C19.6423 17.597 20.0382 17.7613 20.3303 18.0533C20.6223 18.3453 20.7865 18.7413 20.787 19.1542V19.2422C20.7859 19.6555 20.6208 20.0514 20.328 20.343C20.0352 20.6346 19.6386 20.7981 19.2253 20.7974ZM9.55399 18.3914C9.35307 18.3918 9.16051 18.4718 9.01844 18.6139C8.87637 18.756 8.79637 18.9485 8.79595 19.1494V19.2374C8.79637 19.4383 8.87637 19.6309 9.01844 19.7729C9.16051 19.915 9.35307 19.995 9.55399 19.9954L19.2293 20.0002C19.4303 20 19.623 19.9201 19.7651 19.778C19.9072 19.6359 19.9871 19.4432 19.9873 19.2422V19.1542C19.9879 19.054 19.9685 18.9546 19.9304 18.8619C19.8923 18.7691 19.8362 18.6849 19.7654 18.6139C19.6945 18.543 19.6103 18.4868 19.5176 18.4486C19.4249 18.4104 19.3256 18.391 19.2253 18.3914H9.55399Z" fill="#000"/>
<path d="M19.0782 9.59567H4.80353C4.54959 9.58494 4.30128 9.51746 4.07684 9.39818C3.85241 9.27891 3.65754 9.11087 3.50656 8.90641C3.37325 8.73939 3.28089 8.54349 3.23687 8.33439C3.19286 8.12528 3.19841 7.90877 3.25308 7.70219C3.32081 7.49036 3.40696 7.28487 3.51055 7.08809C3.54814 7.01212 3.58492 6.93616 3.6185 6.86179C3.70433 6.66669 3.79655 6.47372 3.89517 6.28287C4.00392 6.07737 4.12066 5.87667 4.2438 5.67757C4.29338 5.59281 4.34295 5.50325 4.39253 5.41209C4.51171 5.17689 4.65224 4.95313 4.81233 4.74362C5.50239 3.89123 6.20685 4.27664 6.82815 4.61488C6.9425 4.67725 7.06404 4.74362 7.19517 4.80999L8.01078 5.28975C8.27305 5.04027 8.74802 4.53092 8.83758 4.42217C9.11871 4.06693 9.43129 3.73776 9.77153 3.43865C9.92145 3.3008 10.1188 3.22611 10.3224 3.23013C10.526 3.23416 10.7202 3.31658 10.8646 3.46024C11.1403 3.73355 11.3888 4.03294 11.6066 4.35421C11.9473 4.85077 12.3967 5.46407 12.7805 5.97342C13.0787 5.64478 13.3834 5.32414 13.6648 5.04267C13.8576 4.84997 14.0047 4.71163 14.1182 4.61648C14.2427 4.5075 14.4026 4.44743 14.568 4.44743C14.7335 4.44743 14.8933 4.5075 15.0178 4.61648C15.3388 4.90031 15.6381 5.20768 15.9134 5.53603C16.0085 5.64318 16.0941 5.73914 16.162 5.8119C16.322 5.98142 16.6338 6.34524 16.8937 6.6459C17.0728 6.8522 17.2247 7.02891 17.2767 7.08409L17.3007 7.10888C17.4418 7.15123 17.5871 7.17804 17.7341 7.18884C18.0347 7.19683 18.3074 7.20083 18.5873 7.19763C18.8671 7.19443 19.0742 7.19683 19.2765 7.19683H19.4149C19.6013 7.17289 19.7907 7.18858 19.9707 7.24287C20.1506 7.29716 20.3171 7.38883 20.4592 7.51188C20.6234 7.6775 20.7347 7.88818 20.779 8.11719C20.8287 8.34134 20.8104 8.57523 20.7262 8.78886C20.6536 8.95178 20.5469 9.09728 20.4134 9.21561C20.2799 9.33393 20.1227 9.42235 19.9522 9.47493C19.6693 9.56183 19.3742 9.6026 19.0782 9.59567ZM5.75187 5.02348C5.62793 5.02348 5.54877 5.09945 5.43203 5.24577C5.30323 5.41854 5.18953 5.60206 5.09219 5.79431C5.03862 5.89346 4.98504 5.99181 4.93227 6.08457C4.82112 6.27328 4.71077 6.46199 4.61242 6.65469C4.52127 6.82981 4.43651 7.00892 4.35655 7.18884C4.31896 7.2728 4.27658 7.35596 4.2366 7.44151C4.15367 7.59712 4.08412 7.75949 4.0287 7.92688C4.01029 8.01437 4.01202 8.10491 4.03377 8.19163C4.05552 8.27835 4.09672 8.35899 4.15424 8.42744C4.22995 8.5316 4.32705 8.61837 4.43903 8.68195C4.55101 8.74552 4.67529 8.78443 4.80353 8.79606H19.0782C19.2872 8.80197 19.4958 8.77498 19.6963 8.7161C19.7578 8.69935 19.8152 8.6704 19.8652 8.63097C19.9152 8.59154 19.9568 8.54245 19.9874 8.48661C20.0103 8.41987 20.0133 8.34794 19.9962 8.27951C19.9824 8.20501 19.9477 8.13596 19.8962 8.08041C19.8163 8.00044 19.6827 7.99645 19.4237 8.00044H19.2637C19.0638 8.00044 18.8639 8.00044 18.6664 8.00044C18.2962 8.00044 18.0187 8.00044 17.7069 7.99245C17.4346 7.97845 17.1672 7.91391 16.9185 7.80214C16.8506 7.7725 16.7882 7.73168 16.7338 7.6814L16.693 7.64142C16.6402 7.58624 16.4755 7.39594 16.282 7.17125C16.0293 6.87859 15.7223 6.52516 15.5703 6.35964C15.4984 6.27968 15.4104 6.18132 15.3081 6.06938C15.0741 5.79505 14.8256 5.53347 14.5636 5.28576C14.4709 5.36572 14.3597 5.47526 14.2222 5.612C13.8496 5.98462 13.4322 6.4308 13.0467 6.86819C13.0077 6.91233 12.9593 6.94728 12.9051 6.97054C12.851 6.9938 12.7923 7.0048 12.7334 7.00273C12.6745 7.00067 12.6168 6.9856 12.5643 6.95861C12.5119 6.93162 12.4661 6.89337 12.4302 6.8466C11.9985 6.28687 11.3804 5.45287 10.9406 4.81078C10.7594 4.54009 10.5521 4.28781 10.3217 4.05755C10.3313 4.02237 10.3065 4.03356 10.2609 4.06874C9.96301 4.33047 9.68924 4.61842 9.44289 4.92913C8.27785 6.33565 8.01878 6.20851 7.84766 6.12215L6.80976 5.51125C6.69222 5.45208 6.56268 5.38171 6.44194 5.31534C6.23432 5.17183 5.99945 5.0725 5.75187 5.02348Z" fill="#000"/>
</svg>
