<?xml version="1.0" encoding="iso-8859-1"?>
<!-- Generator: Adobe Illustrator 19.0.0, SVG Export Plug-In . SVG Version: 6.00 Build 0)  -->
<svg version="1.1" id="Capa_1" xmlns="http://www.w3.org/2000/svg" xmlns:xlink="http://www.w3.org/1999/xlink" x="0px" y="0px"
	 viewBox="0 0 490 490" style="enable-background:new 0 0 490 490;" xml:space="preserve">
<g>
	<g>
		<path d="M20.8,109.8h382.8v48.9c0,11.4,9.4,20.8,20.8,20.8s20.8-9.4,20.8-20.8v-48.9h22.9c11.4,0,21.8-9.4,21.8-20.8
			s-9.4-20.8-20.8-20.8h-23.9V21.3c0-11.4-9.4-20.8-20.8-20.8s-20.8,9.4-20.8,20.8v46.8H20.8C9.4,68.1,0,77.5,0,88.9
			S9.4,109.8,20.8,109.8z"/>
		<path d="M469.2,224.2H319.4v-47.9c0-11.4-9.4-20.8-20.8-20.8s-20.8,9.4-20.8,20.8v47.9H85.3v-47.9c0-11.4-9.4-20.8-20.8-20.8
			s-20.8,9.4-20.8,20.8v47.9H20.8C9.4,224.2,0,233.6,0,245c0,11.4,9.4,20.8,20.8,20.8h22.9v47.9c0,11.4,9.4,20.8,20.8,20.8
			c10.4,0,19.8-9.4,20.8-20.8v-47.9h192.5v47.9c0,11.4,9.4,20.8,20.8,20.8s20.8-9.4,20.8-20.8v-47.9h148.8
			c11.4,0,21.8-9.4,21.8-20.8C490,233.6,480.6,224.2,469.2,224.2z"/>
		<path d="M469.2,379.2h-23.9v-47.9c0-11.4-9.4-20.8-20.8-20.8s-20.8,9.4-20.8,20.8v47.9H20.8C9.4,379.2,0,388.6,0,400
			c0,11.4,9.4,20.8,20.8,20.8h382.8v47.9c0,11.4,9.4,20.8,20.8,20.8s20.8-9.4,20.8-20.8v-47.9h22.9c11.4,0,20.8-9.4,21.8-20.8
			C490,388.6,480.6,379.2,469.2,379.2z"/>
	</g>
</g>
<g>
</g>
<g>
</g>
<g>
</g>
<g>
</g>
<g>
</g>
<g>
</g>
<g>
</g>
<g>
</g>
<g>
</g>
<g>
</g>
<g>
</g>
<g>
</g>
<g>
</g>
<g>
</g>
<g>
</g>
</svg>
