<?xml version="1.0" standalone="no"?>
<!DOCTYPE svg PUBLIC "-//W3C//DTD SVG 20010904//EN"
 "http://www.w3.org/TR/2001/REC-SVG-20010904/DTD/svg10.dtd">
<svg version="1.0" xmlns="http://www.w3.org/2000/svg"
 width="512.000000pt" height="512.000000pt" viewBox="0 0 512.000000 512.000000"
 preserveAspectRatio="xMidYMid meet">

<g transform="translate(0.000000,512.000000) scale(0.100000,-0.100000)"
fill="#000000" stroke="none">
<path d="M2430 4853 c-110 -7 -288 -35 -408 -64 -794 -194 -1407 -759 -1650
-1521 -30 -94 -75 -285 -86 -368 -6 -44 -8 -46 -56 -63 -70 -25 -152 -104
-192 -185 l-33 -67 -3 -659 c-3 -725 -3 -725 58 -798 16 -20 49 -46 73 -57 71
-35 138 -28 369 34 111 30 210 55 219 55 9 0 38 -28 65 -62 65 -83 230 -248
325 -325 416 -337 894 -506 1434 -506 381 0 705 75 1045 244 434 215 766 533
995 953 115 211 217 522 249 757 6 44 8 46 57 63 71 26 151 103 191 184 l33
67 3 659 c3 725 3 725 -58 798 -16 20 -49 46 -73 57 -71 35 -138 28 -369 -34
-111 -30 -210 -55 -219 -55 -9 0 -38 28 -65 62 -71 91 -234 252 -344 340 -442
353 -990 526 -1560 491z m315 -203 c415 -39 805 -198 1135 -460 105 -84 296
-278 284 -290 -5 -4 -52 -20 -104 -34 l-95 -25 -95 93 c-107 104 -183 164
-297 235 -480 297 -1067 370 -1602 199 -245 -78 -313 -137 -266 -228 30 -59
81 -64 179 -21 36 17 107 43 158 60 555 177 1180 50 1627 -330 63 -54 71 -64
55 -71 -11 -4 -228 -64 -484 -132 -256 -68 -878 -235 -1384 -371 -505 -135
-921 -244 -924 -241 -19 19 123 329 212 466 57 87 68 128 46 171 -16 29 -68
52 -105 45 -39 -8 -58 -27 -128 -136 -100 -156 -189 -357 -232 -525 -10 -38
-23 -75 -29 -82 -6 -6 -47 -21 -91 -32 -44 -12 -88 -24 -97 -27 -21 -6 -19 6
18 157 141 571 515 1055 1034 1336 354 192 785 280 1185 243z m2167 -818 c5
-18 7 -306 6 -640 -3 -663 -1 -634 -62 -691 -25 -24 -107 -46 -1861 -516 -214
-57 -786 -210 -1270 -340 -484 -130 -1016 -272 -1182 -317 -166 -44 -309 -78
-317 -75 -8 3 -17 25 -21 49 -3 24 -5 311 -3 638 3 531 5 598 20 625 40 72 -8
58 1220 386 1946 522 2062 553 2748 738 366 99 676 179 689 178 19 -2 27 -10
33 -35z m-288 -1654 c-117 -645 -550 -1217 -1136 -1501 -833 -404 -1809 -228
-2452 442 -48 51 -84 96 -80 101 5 4 52 19 104 34 l94 25 101 -98 c279 -271
596 -429 1000 -497 124 -21 411 -24 545 -5 725 100 1323 580 1553 1246 19 55
40 126 47 158 7 31 18 61 24 66 9 7 164 54 198 60 4 0 5 -14 2 -31z m-434 -97
c0 -5 -14 -49 -31 -98 -141 -404 -434 -734 -824 -928 -634 -316 -1349 -236
-1874 208 -70 60 -80 72 -65 79 11 4 170 48 354 97 1047 280 1984 531 2185
586 250 68 255 69 255 56z"/>
<path d="M1374 4040 c-12 -4 -31 -21 -44 -37 -17 -22 -21 -36 -17 -68 8 -53
44 -85 98 -85 104 0 137 140 44 185 -37 17 -50 18 -81 5z"/>
<path d="M4415 3564 c-162 -38 -263 -71 -282 -93 l-23 -24 0 -444 0 -445 29
-29 c21 -20 39 -29 63 -29 47 0 252 56 307 85 61 30 136 112 169 183 27 57 27
59 30 317 3 282 -1 319 -48 383 -47 65 -171 113 -245 96z m71 -218 c18 -14 19
-28 19 -238 0 -243 -2 -253 -62 -310 -25 -24 -98 -58 -124 -58 -5 0 -9 130 -9
289 l0 290 58 16 c31 9 62 18 67 20 19 7 31 5 51 -9z"/>
<path d="M3645 3361 c-184 -51 -209 -62 -225 -91 -14 -26 -14 -884 0 -911 16
-28 68 -52 105 -46 17 3 111 26 208 52 205 55 227 69 227 142 0 36 -6 50 -29
74 -42 42 -82 38 -304 -27 -16 -5 -18 2 -15 86 l3 92 80 23 c97 28 125 55 125
119 0 33 -6 48 -27 68 -37 34 -63 39 -126 22 -28 -7 -53 -14 -55 -14 -1 0 -1
41 0 91 l3 92 148 41 c174 48 197 64 197 133 0 36 -6 50 -29 74 -40 40 -78 37
-286 -20z"/>
<path d="M2955 3175 c-167 -45 -203 -58 -222 -80 -27 -31 -31 -99 -8 -132 22
-31 76 -46 119 -34 l36 9 0 -343 c0 -370 2 -385 51 -411 51 -26 125 -9 145 33
5 10 11 189 14 397 l5 380 60 18 c76 22 105 53 105 112 0 33 -6 48 -27 68 -16
14 -39 28 -53 31 -15 3 -109 -17 -225 -48z"/>
<path d="M2408 3024 c-15 -8 -32 -23 -38 -34 -6 -12 -10 -178 -10 -460 l0
-442 29 -29 c41 -41 101 -41 142 0 l29 29 0 442 c0 284 -4 448 -10 461 -13 23
-61 49 -92 49 -13 -1 -35 -7 -50 -16z"/>
<path d="M2048 2920 c-14 -10 -66 -90 -116 -177 -50 -87 -97 -166 -104 -175
-12 -15 -24 -4 -108 98 -105 126 -133 144 -194 124 -67 -22 -66 -11 -66 -500
l0 -442 29 -29 c23 -23 38 -29 71 -29 33 0 48 6 71 29 l29 29 0 279 0 278 64
-70 c61 -67 65 -70 109 -70 56 0 75 16 133 115 l44 75 0 -231 0 -231 26 -27
c38 -37 110 -37 148 0 l26 27 0 444 0 445 -29 29 c-36 36 -95 40 -133 9z"/>
<path d="M1139 2671 l-29 -29 0 -445 0 -444 25 -26 c28 -27 61 -37 100 -29 13
2 36 16 50 29 l25 26 0 444 0 445 -29 29 c-23 23 -38 29 -71 29 -33 0 -48 -6
-71 -29z"/>
<path d="M436 2484 l-26 -27 0 -444 0 -445 29 -29 c41 -40 69 -38 290 21 213
58 231 69 231 146 0 34 -6 51 -24 69 -39 39 -66 40 -195 6 -64 -17 -121 -31
-124 -31 -4 0 -7 159 -7 354 l0 353 -26 27 c-21 21 -36 26 -74 26 -38 0 -53
-5 -74 -26z"/>
</g>
</svg>
