<svg width="24" height="17" viewBox="0 0 24 17" fill="none" xmlns="http://www.w3.org/2000/svg">
<path d="M23.9311 8.19688C23.8959 8.11788 23.0491 6.23926 21.1657 4.35576C18.6573 1.84707 15.4878 0.520996 12 0.520996C8.5122 0.520996 5.34266 1.84707 2.83426 4.35576C0.950854 6.23926 0.104078 8.11787 0.0689206 8.19688C0.0234791 8.29916 0 8.40985 0 8.52178C0 8.63371 0.0234791 8.74439 0.0689206 8.84668C0.104078 8.92578 0.950954 10.8039 2.83436 12.6871C5.34276 15.1952 8.5122 16.521 12 16.521C15.4878 16.521 18.6572 15.1952 21.1656 12.6871C23.049 10.8039 23.8959 8.92579 23.9311 8.84668C23.9765 8.74439 24 8.63371 24 8.52178C24 8.40985 23.9765 8.29917 23.9311 8.19688ZM12 14.921C8.92197 14.921 6.2326 13.8024 4.00653 11.5964C3.09166 10.6885 2.31313 9.65288 1.69519 8.52178C2.3131 7.39042 3.09163 6.35453 4.00653 5.44639C6.2326 3.23984 8.92206 2.121 12 2.121C15.0779 2.121 17.7674 3.23984 19.9935 5.44639C20.9084 6.35454 21.687 7.39046 22.3049 8.52188C21.5836 9.86689 18.4432 14.921 12 14.921ZM12 3.72187C11.0506 3.72187 10.1226 4.00339 9.33326 4.53082C8.5439 5.05825 7.92867 5.80791 7.56537 6.68499C7.20207 7.56208 7.10701 8.5272 7.29222 9.45831C7.47743 10.3894 7.93459 11.2447 8.60588 11.916C9.27717 12.5873 10.1325 13.0444 11.0636 13.2296C11.9947 13.4149 12.9598 13.3198 13.8369 12.9565C14.714 12.5932 15.4636 11.978 15.9911 11.1886C16.5185 10.3993 16.8 9.47123 16.8 8.52188C16.7986 7.24927 16.2924 6.0292 15.3925 5.12933C14.4927 4.22947 13.2726 3.7233 12 3.72187ZM12 11.7219C11.3671 11.7219 10.7484 11.5342 10.2222 11.1826C9.69593 10.831 9.28578 10.3312 9.04358 9.74646C8.80138 9.16174 8.73801 8.51833 8.86148 7.89759C8.98495 7.27685 9.28972 6.70666 9.73725 6.25913C10.1848 5.8116 10.755 5.50683 11.3757 5.38336C11.9964 5.25989 12.6399 5.32326 13.2246 5.56546C13.8093 5.80766 14.3091 6.21781 14.6607 6.74405C15.0123 7.27029 15.2 7.88898 15.2 8.52188C15.199 9.37027 14.8616 10.1836 14.2617 10.7835C13.6618 11.3835 12.8484 11.7209 12 11.7219Z" fill="#BFC0C7"/>
</svg>
