<svg width="20" height="20" viewBox="0 0 20 20" fill="none" xmlns="http://www.w3.org/2000/svg">
<path d="M18.75 8.75H11.25V1.25C11.25 0.918479 11.1183 0.600537 10.8839 0.366117C10.6495 0.131696 10.3315 0 10 0C9.66848 0 9.35054 0.131696 9.11612 0.366117C8.8817 0.600537 8.75 0.918479 8.75 1.25V8.75H1.25C0.918479 8.75 0.600537 8.8817 0.366117 9.11612C0.131696 9.35054 0 9.66848 0 10C0 10.3315 0.131696 10.6495 0.366117 10.8839C0.600537 11.1183 0.918479 11.25 1.25 11.25H8.75V18.75C8.75 19.0815 8.8817 19.3995 9.11612 19.6339C9.35054 19.8683 9.66848 20 10 20C10.3315 20 10.6495 19.8683 10.8839 19.6339C11.1183 19.3995 11.25 19.0815 11.25 18.75V11.25H18.75C19.0815 11.25 19.3995 11.1183 19.6339 10.8839C19.8683 10.6495 20 10.3315 20 10C20 9.66848 19.8683 9.35054 19.6339 9.11612C19.3995 8.8817 19.0815 8.75 18.75 8.75Z" fill="black"/>
</svg>
