<svg width="24" height="24" viewBox="0 0 24 24" fill="none" xmlns="http://www.w3.org/2000/svg">
<path fill-rule="evenodd" clip-rule="evenodd" d="M12 24C5.37258 24 0 18.6274 0 12C0 5.37258 5.37258 0 12 0C18.6274 0 24 5.37258 24 12C24 18.6274 18.6274 24 12 24ZM12 21.8182C17.4224 21.8182 21.8182 17.4224 21.8182 12C21.8182 6.57757 17.4224 2.18182 12 2.18182C6.57757 2.18182 2.18182 6.57757 2.18182 12C2.18182 17.4224 6.57757 21.8182 12 21.8182ZM18.0885 5.91149L15.0443 15.0443L5.91149 18.0885L8.95574 8.95574L18.0885 5.91149ZM9.36124 14.6388L13.3194 13.3194L14.6388 9.36124L10.6806 10.6806L9.36124 14.6388Z" fill="#000"/>
</svg>
